<svg width="64" height="64" viewBox="0 0 64 64" fill="none" xmlns="http://www.w3.org/2000/svg">
<path fill-rule="evenodd" clip-rule="evenodd" d="M52.3334 0.666748C54.5141 0.666748 56.3687 2.06283 57.0523 4.00999C57.3946 3.98113 57.7426 4.00491 58.0835 4.0839C58.3806 4.02885 58.687 4.00008 59 4.00008C61.7614 4.00008 64 6.23866 64 9.00008C64 11.7615 61.7614 14.0001 59 14.0001C58.3408 14.0001 57.7114 13.8725 57.1352 13.6407L55.1302 16.6481C58.5943 20.8599 56.2859 27.2843 54.9367 31.0367L54.9058 31.1233C54.6634 31.8013 54.3715 32.6178 54.1855 33.2384C56.5882 36.5967 58.4162 37.9555 59.7837 38.972L59.79 38.9767C62.21 40.7701 63.9234 42.3967 63.9934 47.0167C64.06 51.4834 61.84 56.7834 58.47 60.2034C56.0234 62.6867 53.1967 64.0001 50.2967 64.0001H13.7367C10.62 64.0001 7.62669 62.5067 5.73335 60.0034C3.84335 57.5001 0.666687 52.0901 0.666687 44.0001C0.666687 32.4834 8.81335 21.0934 19.6167 17.5034C24.9034 15.7467 33.67 16.2834 38.7567 18.6801L38.6959 18.809C41.3545 15.9632 44.7673 12.6978 49.2816 13.401L51.1917 10.5358C48.9804 10.0194 47.3334 8.03541 47.3334 5.66675C47.3334 2.90532 49.5719 0.666748 52.3334 0.666748ZM44.0034 50.6668L44 44.0001H44.0067C45.08 44.0001 46.4934 43.8467 47.1334 43.1201C48.2232 41.8836 47.8101 38.5841 47.5634 36.6141L47.5634 36.6134C47.4334 35.5801 47.3334 34.6734 47.3334 34.0001C47.3334 32.4834 47.92 30.8501 48.6634 28.7834C50.6767 23.1867 50.8 21.1301 49.1734 20.3167C47.58 19.5267 46.5367 20.1534 42.93 24.0467C40.8767 26.2701 38.55 28.7867 35.49 30.3167C29.24 33.4401 27.3334 35.8601 27.3334 40.6667C27.3334 42.1601 29.17 44.0001 30.6667 44.0001V50.6668C25.5267 50.6668 20.6667 45.8068 20.6667 40.6667C20.6667 32.0401 25.4 27.9067 32.51 24.3501C32.802 24.2041 33.0903 24.037 33.3753 23.852C29.6648 22.9461 24.6238 22.8655 21.72 23.8334C13.6534 26.5101 7.33335 35.3701 7.33335 44.0001C7.33335 50.3734 9.93335 54.5001 11.0534 55.9801C11.7034 56.8401 12.68 57.3334 13.7367 57.3334H50.2934C51.7267 57.3334 53.0534 56.2001 53.72 55.5234C55.8534 53.3634 57.37 49.8234 57.3267 47.1134C57.3034 45.4301 57.3034 45.4301 55.82 44.3267L55.8153 44.3232C55.3536 43.9808 54.8311 43.5933 54.2513 43.119C53.9333 44.6868 53.2984 46.2137 52.1367 47.5301C50.3 49.6134 47.56 50.6668 44.0034 50.6668Z" fill="#FF6A90"/>
</svg>
