<svg width="80" height="80" viewBox="0 0 80 80" fill="none" xmlns="http://www.w3.org/2000/svg">
<path fill-rule="evenodd" clip-rule="evenodd" d="M53.3333 43.0877C43.3333 41.4909 43.3333 32.42 43.3333 25.0001C43.3333 14.7201 49.19 6.66675 56.6667 6.66675C64.1433 6.66675 70 14.7201 70 25.0001C70 32.42 70 41.4909 60 43.0877V70.0001H53.3333V43.0877ZM56.6667 36.6667C62.76 36.6667 63.3333 34.6068 63.3333 25.0001C63.3333 18.1267 59.82 13.3334 56.6667 13.3334C53.5133 13.3334 50 18.1267 50 25.0001C50 34.6068 50.5733 36.6667 56.6667 36.6667ZM30 40.0001H26.6667V70.0001H20V40.0001H16.6667C12.99 40.0001 10 37.0101 10 33.3334V10.0001H16.6667V33.3334H20V10.0001H26.6667V33.3334H30V10.0001H36.6667V33.3334C36.6667 37.0101 33.6767 40.0001 30 40.0001Z" fill="#FF6A90"/>
</svg>
