<svg width="18" height="18" viewBox="0 0 18 18" fill="none" xmlns="http://www.w3.org/2000/svg">
<path fill-rule="evenodd" clip-rule="evenodd" d="M9 15.75C5.27775 15.75 2.25 12.7215 2.25 9C2.25 5.2785 5.27775 2.25 9 2.25C12.7222 2.25 15.75 5.2785 15.75 9C15.75 12.7215 12.7222 15.75 9 15.75ZM9 3.75C6.10575 3.75 3.75 6.105 3.75 9C3.75 11.895 6.10575 14.25 9 14.25C11.8942 14.25 14.25 11.895 14.25 9C14.25 6.105 11.8942 3.75 9 3.75ZM8.25 9.375L11.55 11.85L12.45 10.65L9.75 8.625V5.25H8.25V9.375Z" fill="#283646"/>
</svg>
