<svg width="134" height="66" viewBox="0 0 134 66" fill="none" xmlns="http://www.w3.org/2000/svg">
<path fill-rule="evenodd" clip-rule="evenodd" d="M21.891 0.0195312L0 21.9115L8.484 30.3935L21.892 16.9865L35.299 30.3935L43.783 21.9115L21.891 0.0195312ZM0.0003 43.1196L21.8913 65.0116L43.7823 43.1196L21.8913 21.2286L0.0003 43.1196ZM68.4495 35.8993C68.2825 35.2903 68.1995 34.5803 68.1995 33.7723V25.0473C68.1995 24.2393 68.2825 23.5343 68.4495 22.9313C68.6155 22.3303 68.9255 21.8663 69.3765 21.5413C69.8285 21.2163 70.4815 21.0533 71.3375 21.0533C72.1775 21.0533 72.8195 21.2163 73.2625 21.5413C73.7065 21.8663 74.0115 22.3303 74.1785 22.9313C74.3455 23.5343 74.4285 24.2393 74.4285 25.0473V33.7723C74.4285 34.5803 74.3455 35.2903 74.1785 35.8993C74.0115 36.5093 73.7065 36.9853 73.2625 37.3263C72.8195 37.6673 72.1775 37.8363 71.3375 37.8363C70.4815 37.8363 69.8285 37.6673 69.3765 37.3263C68.9255 36.9853 68.6155 36.5093 68.4495 35.8993ZM74.3085 38.5263C75.0225 38.0193 75.5255 37.3263 75.8185 36.4463C76.1115 35.5673 76.2595 34.5483 76.2595 33.3913V25.3803C76.2595 24.2083 76.1075 23.1893 75.8065 22.3253C75.5065 21.4613 74.9945 20.7923 74.2735 20.3163C73.5525 19.8403 72.5735 19.6033 71.3375 19.6033C70.0855 19.6033 69.0985 19.8403 68.3785 20.3163C67.6565 20.7923 67.1415 21.4613 66.8325 22.3253C66.5235 23.1893 66.3695 24.2083 66.3695 25.3803V33.3683C66.3695 34.5253 66.5145 35.5513 66.8085 36.4463C67.1015 37.3413 67.6085 38.0393 68.3305 38.5393C69.0515 39.0383 70.0535 39.2873 71.3375 39.2873C72.6055 39.2873 73.5955 39.0343 74.3085 38.5263ZM60.33 19.6034C61.488 19.6034 62.395 19.8254 63.052 20.2694C63.71 20.7124 64.182 21.3424 64.467 22.1594C64.752 22.9754 64.895 23.9464 64.895 25.0714V26.2364H63.183V25.1194C63.183 24.2794 63.115 23.5574 62.981 22.9554C62.846 22.3534 62.573 21.8854 62.161 21.5524C61.748 21.2194 61.147 21.0534 60.354 21.0534C59.483 21.0534 58.828 21.2324 58.393 21.5884C57.956 21.9454 57.663 22.4484 57.513 23.0984C57.363 23.7484 57.287 24.5004 57.287 25.3564V33.5584C57.287 34.5084 57.378 35.3014 57.561 35.9354C57.742 36.5694 58.056 37.0444 58.5 37.3624C58.944 37.6784 59.562 37.8364 60.354 37.8364C61.162 37.8364 61.769 37.6634 62.173 37.3144C62.577 36.9654 62.846 36.4784 62.981 35.8524C63.115 35.2264 63.183 34.4934 63.183 33.6534V32.3934H64.895V33.5344C64.895 34.6604 64.764 35.6544 64.502 36.5174C64.241 37.3814 63.781 38.0594 63.123 38.5504C62.466 39.0414 61.534 39.2874 60.33 39.2874C59.031 39.2874 58.029 39.0184 57.323 38.4794C56.617 37.9404 56.13 37.2154 55.861 36.3034C55.591 35.3924 55.457 34.3824 55.457 33.2724V25.6184C55.457 24.4294 55.595 23.3834 55.873 22.4804C56.15 21.5764 56.646 20.8724 57.359 20.3644C58.072 19.8574 59.062 19.6034 60.33 19.6034ZM114.244 45.3807H115.978V45.0457H114.657V44.1647H115.861V43.8377H114.657V42.9877H115.978V42.6527H114.244V45.3807ZM111.17 42.6529L112.538 44.7069V42.6529H112.951V45.3809H112.538L111.17 43.3269V45.3809H110.757V42.6529H111.17ZM109.463 45.3812H109.05V42.6532H109.463V45.3812ZM119.346 43.8221H120.667V42.6531H121.08V45.3811H120.667V44.1611H119.346V45.3811H118.933V42.6531H119.346V43.8221ZM122.373 45.3807H124.107V45.0457H122.786V44.1647H123.99V43.8377H122.786V42.9877H124.107V42.6527H122.373V45.3807ZM125.752 43.9696H126.255C126.442 43.9696 126.579 43.9246 126.666 43.8336C126.753 43.7426 126.797 43.6246 126.797 43.4796C126.797 43.3336 126.754 43.2176 126.668 43.1306C126.582 43.0426 126.443 42.9996 126.251 42.9996H125.752V43.9696ZM127.222 43.4676C127.222 43.6366 127.177 43.7896 127.087 43.9276C126.997 44.0656 126.858 44.1636 126.668 44.2236L127.249 45.3806H126.77L126.239 44.2816H125.752V45.3806H125.339V42.6536H126.278C126.494 42.6536 126.671 42.6896 126.811 42.7616C126.949 42.8346 127.053 42.9326 127.12 43.0566C127.188 43.1796 127.222 43.3166 127.222 43.4676ZM128.449 45.3807H130.182V45.0457H128.861V44.1647H130.065V43.8377H128.861V42.9877H130.182V42.6527H128.449V45.3807ZM83.6519 39.0501L80.0139 23.7401L79.6339 39.0501H78.1359L78.6119 19.7941H80.4179L84.2219 36.5061L88.0969 19.7941H89.9039L90.3789 39.0501H88.8809L88.5009 23.7161L84.8169 39.0501H83.6519ZM94.4446 28.5897V21.1487H96.7736C97.6306 21.1487 98.2916 21.2557 98.7586 21.4697C99.2256 21.6837 99.5546 22.0647 99.7456 22.6107C99.9356 23.1567 100.031 23.9227 100.031 24.9047C100.031 25.8237 99.9206 26.5537 99.6986 27.0917C99.4756 27.6307 99.1236 28.0157 98.6396 28.2447C98.1566 28.4747 97.5266 28.5897 96.7506 28.5897H94.4446ZM99.9236 29.2557C100.597 28.7957 101.081 28.1817 101.375 27.4127C101.668 26.6447 101.814 25.8087 101.814 24.9047C101.814 23.8747 101.675 22.9797 101.398 22.2187C101.121 21.4577 100.649 20.8627 99.9836 20.4357C99.3176 20.0077 98.4066 19.7937 97.2496 19.7937H92.6366V39.0497H94.4446V29.9447H97.2726C98.3666 29.9447 99.2506 29.7147 99.9236 29.2557ZM106.189 22.1939L104.145 32.5829H108.234L106.189 22.1939ZM107.117 19.7939L111.206 39.0499H109.422L108.471 33.8909H103.883L102.909 39.0499H101.149L105.214 19.7939H107.117ZM120.025 34.7469L113.891 19.7939H112.584V39.0499H114.153V23.9309L120.31 39.0499H121.594V19.7939H120.025V34.7469ZM128.82 39.0497H127.061V32.6537L122.71 19.7937H124.469L127.94 30.4907L131.269 19.7937H133.051L128.82 32.6537V39.0497ZM56.634 43.9696L55.991 42.6536H55.524L56.428 44.3746V45.3806H56.841V44.3746L57.737 42.6536H57.274L56.634 43.9696ZM60.3852 44.9321C60.5232 44.8491 60.6322 44.7301 60.7102 44.5741C60.7882 44.4181 60.8272 44.2321 60.8272 44.0161C60.8272 43.8021 60.7882 43.6151 60.7102 43.4601C60.6322 43.3031 60.5232 43.1841 60.3852 43.1011C60.2462 43.0181 60.0832 42.9761 59.8962 42.9761C59.7092 42.9761 59.5452 43.0181 59.4042 43.1011C59.2652 43.1841 59.1562 43.3031 59.0792 43.4601C59.0032 43.6151 58.9652 43.8021 58.9652 44.0161C58.9652 44.2321 59.0032 44.4181 59.0792 44.5741C59.1562 44.7301 59.2652 44.8491 59.4042 44.9321C59.5452 45.0151 59.7092 45.0571 59.8962 45.0571C60.0832 45.0571 60.2462 45.0151 60.3852 44.9321ZM59.8962 42.6061C60.1662 42.6061 60.4022 42.6661 60.6052 42.7851C60.8082 42.9051 60.9662 43.0701 61.0782 43.2821C61.1912 43.4941 61.2482 43.7391 61.2482 44.0161C61.2482 44.2951 61.1912 44.5401 61.0782 44.7521C60.9662 44.9631 60.8082 45.1291 60.6052 45.2481C60.4022 45.3681 60.1662 45.4281 59.8962 45.4281C59.6262 45.4281 59.3892 45.3681 59.1872 45.2481C58.9832 45.1291 58.8252 44.9631 58.7112 44.7521C58.5972 44.5401 58.5402 44.2951 58.5402 44.0161C58.5402 43.7391 58.5972 43.4941 58.7112 43.2821C58.8252 43.0701 58.9832 42.9051 59.1872 42.7851C59.3892 42.6661 59.6262 42.6061 59.8962 42.6061ZM64.1077 44.3602C64.1077 44.5982 64.0507 44.7742 63.9367 44.8852C63.8227 44.9982 63.6697 45.0532 63.4767 45.0532C63.2817 45.0532 63.1277 44.9982 63.0127 44.8852C62.8987 44.7742 62.8407 44.5982 62.8407 44.3602V42.6532H62.4277V44.3562C62.4277 44.6002 62.4747 44.8012 62.5667 44.9602C62.6587 45.1182 62.7837 45.2362 62.9407 45.3122C63.0977 45.3892 63.2737 45.4272 63.4687 45.4272C63.6617 45.4272 63.8367 45.3892 63.9967 45.3122C64.1567 45.2362 64.2837 45.1182 64.3787 44.9602C64.4737 44.8012 64.5207 44.6002 64.5207 44.3562V42.6532H64.1077V44.3602ZM66.2043 43.9696H66.7073C66.8943 43.9696 67.0313 43.9246 67.1183 43.8336C67.2053 43.7426 67.2493 43.6246 67.2493 43.4796C67.2493 43.3336 67.2063 43.2176 67.1203 43.1306C67.0343 43.0426 66.8953 42.9996 66.7033 42.9996H66.2043V43.9696ZM67.6743 43.4676C67.6743 43.6366 67.6293 43.7896 67.5393 43.9276C67.4493 44.0656 67.3103 44.1636 67.1203 44.2236L67.7013 45.3806H67.2223L66.6913 44.2816H66.2043V45.3806H65.7913V42.6536H66.7303C66.9463 42.6536 67.1233 42.6896 67.2633 42.7616C67.4013 42.8346 67.5053 42.9326 67.5723 43.0566C67.6403 43.1796 67.6743 43.3166 67.6743 43.4676ZM71.8352 42.9764C72.0352 42.9764 72.1952 43.0234 72.3142 43.1174C72.4342 43.2094 72.5122 43.3354 72.5492 43.4954H73.0082C72.9542 43.2134 72.8252 42.9964 72.6222 42.8394C72.4202 42.6844 72.1592 42.6064 71.8392 42.6064C71.5692 42.6064 71.3362 42.6654 71.1402 42.7854C70.9432 42.9054 70.7922 43.0704 70.6862 43.2824C70.5792 43.4944 70.5262 43.7404 70.5262 44.0204C70.5262 44.2984 70.5792 44.5434 70.6862 44.7554C70.7922 44.9664 70.9432 45.1314 71.1402 45.2494C71.3362 45.3684 71.5692 45.4274 71.8392 45.4274C72.1592 45.4274 72.4202 45.3504 72.6222 45.1974C72.8252 45.0444 72.9542 44.8324 73.0082 44.5624H72.5492C72.5122 44.7154 72.4342 44.8364 72.3142 44.9244C72.1952 45.0134 72.0352 45.0574 71.8352 45.0574C71.5632 45.0574 71.3472 44.9644 71.1892 44.7804C71.0302 44.5964 70.9512 44.3424 70.9512 44.0204C70.9512 43.6964 71.0302 43.4404 71.1892 43.2544C71.3472 43.0694 71.5632 42.9764 71.8352 42.9764ZM75.9526 44.9321C76.0906 44.8491 76.1996 44.7301 76.2776 44.5741C76.3556 44.4181 76.3946 44.2321 76.3946 44.0161C76.3946 43.8021 76.3556 43.6151 76.2776 43.4601C76.1996 43.3031 76.0906 43.1841 75.9526 43.1011C75.8136 43.0181 75.6506 42.9761 75.4636 42.9761C75.2766 42.9761 75.1126 43.0181 74.9716 43.1011C74.8326 43.1841 74.7236 43.3031 74.6466 43.4601C74.5706 43.6151 74.5326 43.8021 74.5326 44.0161C74.5326 44.2321 74.5706 44.4181 74.6466 44.5741C74.7236 44.7301 74.8326 44.8491 74.9716 44.9321C75.1126 45.0151 75.2766 45.0571 75.4636 45.0571C75.6506 45.0571 75.8136 45.0151 75.9526 44.9321ZM75.4636 42.6061C75.7336 42.6061 75.9696 42.6661 76.1726 42.7851C76.3756 42.9051 76.5336 43.0701 76.6456 43.2821C76.7586 43.4941 76.8156 43.7391 76.8156 44.0161C76.8156 44.2951 76.7586 44.5401 76.6456 44.7521C76.5336 44.9631 76.3756 45.1291 76.1726 45.2481C75.9696 45.3681 75.7336 45.4281 75.4636 45.4281C75.1936 45.4281 74.9566 45.3681 74.7546 45.2481C74.5506 45.1291 74.3926 44.9631 74.2786 44.7521C74.1646 44.5401 74.1076 44.2951 74.1076 44.0161C74.1076 43.7391 74.1646 43.4941 74.2786 43.2821C74.3926 43.0701 74.5506 42.9051 74.7546 42.7851C74.9566 42.6661 75.1936 42.6061 75.4636 42.6061ZM79.427 44.4686L78.503 42.6536H78.016V45.3806H78.429V43.3696L79.267 44.9906H79.586L80.42 43.3656V45.3806H80.833V42.6536H80.347L79.427 44.4686ZM83.0627 43.9433C83.2577 43.9433 83.3977 43.9003 83.4817 43.8163C83.5657 43.7313 83.6087 43.6173 83.6087 43.4713C83.6087 43.3203 83.5657 43.2033 83.4817 43.1193C83.3977 43.0343 83.2577 42.9923 83.0627 42.9923H82.5407V43.9433H83.0627ZM83.0827 42.6533C83.2947 42.6533 83.4717 42.6883 83.6127 42.7593C83.7527 42.8323 83.8567 42.9283 83.9257 43.0523C83.9947 43.1753 84.0297 43.3153 84.0297 43.4713C84.0297 43.6193 83.9967 43.7543 83.9297 43.8783C83.8637 44.0023 83.7597 44.1003 83.6207 44.1723C83.4797 44.2453 83.2997 44.2823 83.0827 44.2823H82.5407V45.3803H82.1277V42.6533H83.0827ZM85.4748 44.3866L85.9148 43.1446L86.3558 44.3866H85.4748ZM85.6928 42.6536L84.6878 45.3806H85.1238L85.3578 44.7146H86.4718L86.7058 45.3806H87.1428L86.1448 42.6536H85.6928ZM88.6772 42.6529L90.0452 44.7069V42.6529H90.4582V45.3809H90.0452L88.6772 43.3269V45.3809H88.2642V42.6529H88.6772ZM92.6526 43.9696L92.0096 42.6536H91.5426L92.4466 44.3746V45.3806H92.8596V44.3746L93.7556 42.6536H93.2926L92.6526 43.9696ZM97.2008 42.9881H96.3938V42.6531H98.4158V42.9881H97.6138V45.3811H97.2008V42.9881ZM99.8577 44.3866L100.298 43.1446L100.739 44.3866H99.8577ZM100.076 42.6536L99.0707 45.3806H99.5067L99.7407 44.7146H100.855L101.089 45.3806H101.526L100.528 42.6536H100.076ZM104.553 44.2196H103.813V43.9006H104.97V45.3806H104.592L104.557 44.9796C104.466 45.1216 104.352 45.2326 104.214 45.3106C104.077 45.3886 103.897 45.4276 103.676 45.4276C103.419 45.4276 103.195 45.3686 103.002 45.2516C102.81 45.1356 102.661 44.9716 102.554 44.7616C102.448 44.5506 102.395 44.3056 102.395 44.0246C102.395 43.7466 102.449 43.5006 102.558 43.2876C102.667 43.0746 102.823 42.9076 103.024 42.7866C103.225 42.6666 103.463 42.6066 103.739 42.6066C104.05 42.6066 104.31 42.6816 104.518 42.8316C104.726 42.9836 104.861 43.1906 104.923 43.4556H104.456C104.415 43.3106 104.333 43.1966 104.21 43.1136C104.088 43.0296 103.931 42.9886 103.739 42.9886C103.454 42.9886 103.229 43.0796 103.065 43.2646C102.901 43.4486 102.82 43.7036 102.82 44.0286C102.82 44.3536 102.9 44.6066 103.061 44.7876C103.222 44.9706 103.436 45.0616 103.704 45.0616C103.974 45.0616 104.177 44.9846 104.314 44.8306C104.45 44.6776 104.53 44.4746 104.553 44.2196ZM106.626 42.6532H106.213V45.3812H107.865V45.0532H106.626V42.6532Z" fill="#FFB9C6"/>
</svg>
