<svg width="126" height="40" viewBox="0 0 126 40" fill="none" xmlns="http://www.w3.org/2000/svg">
<path fill-rule="evenodd" clip-rule="evenodd" d="M49.203 0.0195312L37.879 19.6315L49.203 39.2425H71.847L83.171 19.6315L71.847 0.0195312H49.203ZM50.235 19.6315L55.381 10.7195H65.669L70.815 19.6315L65.669 28.5425H55.381L50.235 19.6315ZM0 11.4603V13.6633H2.708V27.8023H5.05V13.6633H7.759V11.4603H0ZM16 27.8028H9.021V11.4598H16V13.6628H11.363V18.4608H15.402V20.6638H11.363V25.4618H16V27.8028ZM25.3647 11.4601H22.8847L21.0947 16.3031L19.3277 11.4601H16.8487L19.9017 19.2411L16.5947 27.8031H19.0757L21.0947 22.2941L23.1377 27.8031H25.6167L22.2417 19.2411L25.3647 11.4601ZM28.439 13.6632H25.73V11.4602H33.49V13.6632H30.781V27.8032H28.439V13.6632ZM90.9409 11.4601H88.5989V27.8031H95.5779V25.4621H90.9409V11.4601ZM112.529 11.5747C112.995 11.7437 113.419 11.9877 113.802 12.3087C114.169 12.6457 114.468 13.0667 114.697 13.5717C114.927 14.0767 115.042 14.6587 115.042 15.3157V16.1427H112.7V15.3157C112.7 14.7497 112.544 14.3327 112.23 14.0647C111.915 13.7967 111.544 13.6627 111.116 13.6627C110.689 13.6627 110.318 13.7967 110.003 14.0647C109.689 14.3327 109.532 14.7497 109.532 15.3157V23.9467C109.532 24.5127 109.689 24.9297 110.003 25.1977C110.318 25.4657 110.689 25.5997 111.116 25.5997C111.544 25.5997 111.915 25.4657 112.23 25.1977C112.544 24.9297 112.7 24.5127 112.7 23.9467V20.8717H110.841V18.8047H115.042V23.9467C115.042 24.6347 114.927 25.2247 114.697 25.7137C114.468 26.2047 114.169 26.6097 113.802 26.9307C113.419 27.2677 112.995 27.5197 112.529 27.6877C112.062 27.8567 111.591 27.9407 111.116 27.9407C110.642 27.9407 110.171 27.8567 109.704 27.6877C109.238 27.5197 108.822 27.2677 108.454 26.9307C108.072 26.6097 107.765 26.2047 107.536 25.7137C107.306 25.2247 107.191 24.6347 107.191 23.9467V15.3157C107.191 14.6587 107.306 14.0767 107.536 13.5717C107.765 13.0667 108.072 12.6457 108.454 12.3087C108.822 11.9877 109.238 11.7437 109.704 11.5747C110.171 11.4067 110.642 11.3227 111.116 11.3227C111.591 11.3227 112.062 11.4067 112.529 11.5747ZM102.693 23.9464C102.693 24.5124 102.537 24.9294 102.222 25.1974C101.908 25.4664 101.537 25.5994 101.109 25.5994C100.681 25.5994 100.31 25.4664 99.9959 25.1974C99.6809 24.9294 99.5249 24.5124 99.5249 23.9464V15.3154C99.5249 14.7504 99.6809 14.3334 99.9959 14.0644C100.31 13.7974 100.681 13.6634 101.109 13.6634C101.537 13.6634 101.908 13.7974 102.222 14.0644C102.537 14.3334 102.693 14.7504 102.693 15.3154V23.9464ZM103.795 12.3084C103.412 11.9874 102.988 11.7434 102.521 11.5744C102.054 11.4064 101.584 11.3224 101.109 11.3224C100.634 11.3224 100.164 11.4064 99.6969 11.5744C99.2299 11.7434 98.8139 11.9874 98.4469 12.3084C98.0639 12.6454 97.7569 13.0664 97.5289 13.5714C97.2979 14.0764 97.1829 14.6584 97.1829 15.3154V23.9464C97.1829 24.6344 97.2979 25.2244 97.5289 25.7144C97.7569 26.2044 98.0639 26.6094 98.4469 26.9304C98.8139 27.2674 99.2299 27.5194 99.6969 27.6874C100.164 27.8564 100.634 27.9404 101.109 27.9404C101.584 27.9404 102.054 27.8564 102.521 27.6874C102.988 27.5194 103.412 27.2674 103.795 26.9304C104.162 26.6094 104.461 26.2044 104.689 25.7144C104.92 25.2244 105.035 24.6344 105.035 23.9464V15.3154C105.035 14.6584 104.92 14.0764 104.689 13.5714C104.461 13.0664 104.162 12.6454 103.795 12.3084ZM122.238 25.1974C122.552 24.9294 122.709 24.5124 122.709 23.9464V15.3154C122.709 14.7504 122.552 14.3334 122.238 14.0644C121.924 13.7974 121.552 13.6634 121.125 13.6634C120.697 13.6634 120.326 13.7974 120.012 14.0644C119.697 14.3334 119.541 14.7504 119.541 15.3154V23.9464C119.541 24.5124 119.697 24.9294 120.012 25.1974C120.326 25.4664 120.697 25.5994 121.125 25.5994C121.552 25.5994 121.924 25.4664 122.238 25.1974ZM123.811 12.3084C124.177 12.6454 124.477 13.0664 124.704 13.5714C124.936 14.0764 125.05 14.6584 125.05 15.3154V23.9464C125.05 24.6344 124.936 25.2244 124.704 25.7144C124.477 26.2044 124.177 26.6094 123.811 26.9304C123.427 27.2674 123.004 27.5194 122.536 27.6874C122.07 27.8564 121.6 27.9404 121.125 27.9404C120.649 27.9404 120.18 27.8564 119.713 27.6874C119.245 27.5194 118.829 27.2674 118.463 26.9304C118.079 26.6094 117.772 26.2044 117.545 25.7144C117.313 25.2244 117.199 24.6344 117.199 23.9464V15.3154C117.199 14.6584 117.313 14.0764 117.545 13.5714C117.772 13.0664 118.079 12.6454 118.463 12.3084C118.829 11.9874 119.245 11.7434 119.713 11.5744C120.18 11.4064 120.649 11.3224 121.125 11.3224C121.6 11.3224 122.07 11.4064 122.536 11.5744C123.004 11.7434 123.427 11.9874 123.811 12.3084Z" fill="#FFB9C6"/>
</svg>
