<svg width="162" height="101" viewBox="0 0 162 101" fill="none" xmlns="http://www.w3.org/2000/svg">
<path fill-rule="evenodd" clip-rule="evenodd" d="M50.4816 33.4175C51.2166 33.6825 51.8856 34.0685 52.4886 34.5745C53.0666 35.1045 53.5366 35.7675 53.8986 36.5625C54.2596 37.3585 54.4406 38.2745 54.4406 39.3105V52.9045C54.4406 53.9895 54.2596 54.9175 53.8986 55.6885C53.5366 56.4605 53.0666 57.0985 52.4886 57.6045C51.8856 58.1355 51.2166 58.5335 50.4816 58.7985C49.7466 59.0625 49.0056 59.1955 48.2586 59.1955C47.5106 59.1955 46.7696 59.0625 46.0346 58.7985C45.2996 58.5335 44.6426 58.1355 44.0646 57.6045C43.4616 57.0985 42.9796 56.4605 42.6186 55.6885C42.2566 54.9175 42.0756 53.9895 42.0756 52.9045V39.3105C42.0756 38.2745 42.2566 37.3585 42.6186 36.5625C42.9796 35.7675 43.4616 35.1045 44.0646 34.5745C44.6426 34.0685 45.2996 33.6825 46.0346 33.4175C46.7696 33.1525 47.5106 33.0195 48.2586 33.0195C49.0056 33.0195 49.7466 33.1525 50.4816 33.4175ZM38.931 53.2298V51.6388H35.243V52.9048C35.243 53.4118 35.171 53.8338 35.026 54.1698C34.882 54.5078 34.701 54.7728 34.484 54.9658C34.243 55.1588 33.983 55.2968 33.706 55.3808C33.429 55.4658 33.17 55.5078 32.929 55.5078C32.085 55.5078 31.501 55.2548 31.176 54.7488C30.85 54.2428 30.687 53.6168 30.687 52.8688V39.7088C30.687 38.8408 30.838 38.1238 31.139 37.5568C31.441 36.9918 32.049 36.7078 32.965 36.7078C33.664 36.7078 34.218 36.9728 34.628 37.5028C35.038 38.0338 35.243 38.6598 35.243 39.3828V40.6128H38.931V39.1668C38.931 38.2748 38.78 37.4488 38.479 36.6898C38.177 35.9298 37.762 35.2738 37.232 34.7188C36.147 33.5858 34.737 33.0198 33.001 33.0198C32.109 33.0198 31.296 33.1698 30.561 33.4718C29.826 33.7738 29.193 34.1888 28.663 34.7188C28.133 35.2498 27.723 35.8758 27.433 36.5988C27.144 37.3228 27 38.1058 27 38.9498V53.1218C27 54.3028 27.186 55.2728 27.56 56.0328C27.933 56.7918 28.41 57.4128 28.988 57.8938C29.567 58.3758 30.218 58.7138 30.941 58.9068C31.664 59.0988 32.374 59.1958 33.074 59.1958C33.893 59.1958 34.659 59.0338 35.369 58.7078C36.08 58.3818 36.701 57.9428 37.232 57.3878C37.762 56.8338 38.177 56.2018 38.479 55.4898C38.78 54.7798 38.931 54.0258 38.931 53.2298ZM88.8243 35.0444C89.4513 35.7194 89.8853 36.5094 90.1253 37.4124C90.3673 38.3164 90.4863 39.5404 90.4863 41.0824C90.4863 42.2394 90.4203 43.2154 90.2893 44.0114C90.1563 44.8064 89.8733 45.5544 89.4393 46.2524C88.9343 47.0964 88.2583 47.7534 87.4143 48.2234C86.5703 48.6924 85.4613 48.9284 84.0883 48.9284H82.2083V58.9784H78.5203V33.2364H84.0513C85.0643 33.2364 85.9553 33.3694 86.7273 33.6344C87.4983 33.8994 88.1973 34.3704 88.8243 35.0444ZM66.4075 46.8675H66.3355L61.5985 33.2365H58.0555V58.9785H61.7435V43.3235H61.8155L65.4325 54.3875H67.2765L70.9275 43.3235H70.9995V58.9785H74.6865V33.2365H71.1085L66.4075 46.8675ZM35.342 66.8775C35.539 66.7595 35.693 66.5905 35.804 66.3675C35.915 66.1455 35.97 65.8825 35.97 65.5755C35.97 65.2695 35.915 65.0055 35.804 64.7845C35.693 64.5625 35.539 64.3935 35.342 64.2755C35.145 64.1575 34.913 64.0975 34.647 64.0975C34.382 64.0975 34.149 64.1575 33.949 64.2755C33.75 64.3935 33.596 64.5625 33.487 64.7845C33.379 65.0055 33.325 65.2695 33.325 65.5755C33.325 65.8825 33.379 66.1455 33.487 66.3675C33.596 66.5905 33.75 66.7595 33.949 66.8775C34.149 66.9945 34.382 67.0545 34.647 67.0545C34.913 67.0545 35.145 66.9945 35.342 66.8775ZM34.647 63.5725C35.031 63.5725 35.367 63.6565 35.654 63.8265C35.943 63.9965 36.167 64.2305 36.327 64.5325C36.488 64.8335 36.568 65.1815 36.568 65.5755C36.568 65.9715 36.488 66.3185 36.327 66.6205C36.167 66.9205 35.943 67.1555 35.654 67.3245C35.367 67.4955 35.031 67.5805 34.647 67.5805C34.264 67.5805 33.927 67.4955 33.639 67.3245C33.351 67.1555 33.126 66.9205 32.964 66.6205C32.802 66.3185 32.721 65.9715 32.721 65.5755C32.721 65.1815 32.802 64.8335 32.964 64.5325C33.126 64.2305 33.351 63.9965 33.639 63.8265C33.927 63.6565 34.264 63.5725 34.647 63.5725ZM57.4572 66.8775C57.6542 66.7595 57.8082 66.5905 57.9192 66.3675C58.0302 66.1455 58.0862 65.8825 58.0862 65.5755C58.0862 65.2695 58.0302 65.0055 57.9192 64.7845C57.8082 64.5625 57.6542 64.3935 57.4572 64.2755C57.2602 64.1575 57.0282 64.0975 56.7622 64.0975C56.4972 64.0975 56.2642 64.1575 56.0642 64.2755C55.8662 64.3935 55.7122 64.5625 55.6022 64.7845C55.4942 65.0055 55.4402 65.2695 55.4402 65.5755C55.4402 65.8825 55.4942 66.1455 55.6022 66.3675C55.7122 66.5905 55.8662 66.7595 56.0642 66.8775C56.2642 66.9945 56.4972 67.0545 56.7622 67.0545C57.0282 67.0545 57.2602 66.9945 57.4572 66.8775ZM56.7622 63.5725C57.1462 63.5725 57.4822 63.6565 57.7692 63.8265C58.0582 63.9965 58.2822 64.2305 58.4422 64.5325C58.6032 64.8335 58.6842 65.1815 58.6842 65.5755C58.6842 65.9715 58.6032 66.3185 58.4422 66.6205C58.2822 66.9205 58.0582 67.1555 57.7692 67.3245C57.4822 67.4955 57.1462 67.5805 56.7622 67.5805C56.3792 67.5805 56.0422 67.4955 55.7552 67.3245C55.4662 67.1555 55.2412 66.9205 55.0792 66.6205C54.9172 66.3185 54.8362 65.9715 54.8362 65.5755C54.8362 65.1815 54.9172 64.8335 55.0792 64.5325C55.2412 64.2305 55.4662 63.9965 55.7552 63.8265C56.0422 63.6565 56.3792 63.5725 56.7622 63.5725ZM97.0364 65.8636H98.0884C98.0554 66.2256 97.9404 66.5146 97.7484 66.7326C97.5544 66.9506 97.2654 67.0596 96.8814 67.0596C96.5014 67.0596 96.1974 66.9306 95.9684 66.6716C95.7394 66.4136 95.6254 66.0536 95.6254 65.5926C95.6254 65.1316 95.7404 64.7696 95.9744 64.5076C96.2064 64.2456 96.5254 64.1146 96.9314 64.1146C97.2044 64.1146 97.4284 64.1736 97.6004 64.2926C97.7744 64.4106 97.8904 64.5726 97.9494 64.7796H98.6134C98.5244 64.4016 98.3334 64.1076 98.0384 63.8926C97.7424 63.6786 97.3734 63.5726 96.9314 63.5726C96.5394 63.5726 96.2014 63.6586 95.9154 63.8286C95.6294 64.0016 95.4094 64.2386 95.2544 64.5406C95.0984 64.8426 95.0214 65.1926 95.0214 65.5866C95.0214 65.9866 95.0974 66.3346 95.2484 66.6346C95.3994 66.9316 95.6114 67.1656 95.8854 67.3306C96.1584 67.4976 96.4764 67.5806 96.8424 67.5806C97.1554 67.5806 97.4114 67.5246 97.6064 67.4136C97.8024 67.3026 97.9644 67.1456 98.0944 66.9436L98.1434 67.5136H98.6804V65.4106H97.0364V65.8636ZM109.432 66.556L107.489 63.639H106.902V67.514H107.489V64.596L109.432 67.514H110.019V63.639H109.432V66.556ZM104.477 67.5142H105.064V63.6392H104.477V67.5142ZM114.32 67.514H111.856V63.639H114.32V64.115H112.443V65.322H114.154V65.786H112.443V67.037H114.32V67.514ZM120.981 65.2991H119.104V63.6391H118.517V67.5141H119.104V65.7801H120.981V67.5141H121.568V63.6391H120.981V65.2991ZM125.868 67.514H123.404V63.639H125.868V64.115H123.991V65.322H125.702V65.786H123.991V67.037H125.868V67.514ZM128.918 65.5091H128.204V64.1311H128.913C129.187 64.1311 129.383 64.1931 129.505 64.3171C129.627 64.4411 129.689 64.6061 129.689 64.8131C129.689 65.0191 129.626 65.1871 129.503 65.3161C129.379 65.4451 129.185 65.5091 128.918 65.5091ZM130.101 65.4491C130.229 65.2531 130.292 65.0351 130.292 64.7961C130.292 64.5801 130.243 64.3871 130.147 64.2111C130.052 64.0351 129.904 63.8971 129.708 63.7931C129.51 63.6901 129.258 63.6391 128.952 63.6391H127.617V67.5141H128.204V65.9521H128.897L129.649 67.5141H130.331L129.505 65.8691C129.774 65.7851 129.973 65.6451 130.101 65.4491ZM134.498 67.514H132.035V63.639H134.498V64.115H132.621V65.322H134.332V65.786H132.621V67.037H134.498V67.514ZM100.447 63.639H101.034V67.049H102.795V67.514H100.447V63.639ZM62.3934 66.2181L61.0814 63.6391H60.3884V67.5141H60.9754V64.6571L62.1654 66.9601H62.6194L63.8044 64.6521V67.5141H64.3914V63.6391H63.7004L62.3934 66.2181ZM67.5586 65.4713C67.8356 65.4713 68.0346 65.4103 68.1536 65.2913C68.2726 65.1703 68.3336 65.0083 68.3336 64.8013C68.3336 64.5863 68.2726 64.4203 68.1536 64.3003C68.0346 64.1803 67.8356 64.1203 67.5586 64.1203H66.8166V65.4713H67.5586ZM67.5866 63.6393C67.8886 63.6393 68.1396 63.6883 68.3396 63.7903C68.5376 63.8933 68.6866 64.0293 68.7846 64.2063C68.8826 64.3813 68.9316 64.5793 68.9316 64.8013C68.9316 65.0113 68.8846 65.2033 68.7906 65.3803C68.6956 65.5553 68.5496 65.6943 68.3506 65.7973C68.1506 65.8993 67.8956 65.9523 67.5866 65.9523H66.8166V67.5143H66.2296V63.6393H67.5866ZM70.9852 66.1009L71.6102 64.3359L72.2362 66.1009H70.9852ZM71.2942 63.6389L69.8672 67.5139H70.4872L70.8182 66.5679H72.4022L72.7352 67.5139H73.3552L71.9372 63.6389H71.2942ZM75.5338 63.639L77.4778 66.556V63.639H78.0648V67.514H77.4778L75.5338 64.596V67.514H74.9478V63.639H75.5338ZM81.1819 65.5091L80.2689 63.6391H79.6049L80.8899 66.0841V67.5141H81.4759V66.0841L82.7479 63.6391H82.0909L81.1819 65.5091ZM87.6424 64.1146H86.4964V63.6386H89.3704V64.1146H88.2294V67.5136H87.6424V64.1146ZM91.4173 66.1009L92.0433 64.3359L92.6693 66.1009H91.4173ZM91.7273 63.6389L90.2993 67.5139H90.9193L91.2513 66.5679H92.8343L93.1673 67.5139H93.7873L92.3693 63.6389H91.7273ZM43.6085 65.5091H44.3235C44.5895 65.5091 44.7835 65.4451 44.9075 65.3161C45.0315 65.1871 45.0935 65.0191 45.0935 64.8131C45.0935 64.6061 45.0325 64.4411 44.9105 64.3171C44.7885 64.1931 44.5915 64.1311 44.3175 64.1311H43.6085V65.5091ZM45.6965 64.7961C45.6965 65.0351 45.6335 65.2531 45.5055 65.4491C45.3775 65.6451 45.1795 65.7851 44.9105 65.8691L45.7355 67.5141H45.0545L44.3015 65.9521H43.6085V67.5141H43.0215V63.6391H44.3565C44.6635 63.6391 44.9145 63.6901 45.1125 63.7931C45.3095 63.8971 45.4565 64.0351 45.5525 64.2111C45.6485 64.3871 45.6965 64.5801 45.6965 64.7961ZM51.6082 64.098C51.8932 64.098 52.1202 64.164 52.2892 64.298C52.4592 64.43 52.5692 64.609 52.6222 64.834H53.2742C53.1982 64.435 53.0152 64.125 52.7262 63.904C52.4392 63.683 52.0682 63.573 51.6132 63.573C51.2312 63.573 50.8992 63.657 50.6202 63.827C50.3412 63.996 50.1272 64.231 49.9752 64.533C49.8242 64.833 49.7492 65.183 49.7492 65.581C49.7492 65.977 49.8242 66.325 49.9752 66.625C50.1272 66.925 50.3412 67.16 50.6202 67.327C50.8992 67.495 51.2312 67.58 51.6132 67.58C52.0682 67.58 52.4392 67.471 52.7262 67.253C53.0152 67.036 53.1982 66.736 53.2742 66.351H52.6222C52.5692 66.569 52.4592 66.741 52.2892 66.866C52.1202 66.992 51.8932 67.054 51.6082 67.054C51.2212 67.054 50.9142 66.922 50.6902 66.661C50.4652 66.4 50.3532 66.039 50.3532 65.581C50.3532 65.12 50.4652 64.757 50.6902 64.494C50.9142 64.23 51.2212 64.098 51.6082 64.098ZM40.6302 66.0638C40.6302 66.4028 40.5492 66.6518 40.3872 66.8098C40.2252 66.9698 40.0072 67.0488 39.7342 67.0488C39.4562 67.0488 39.2372 66.9698 39.0752 66.8098C38.9132 66.6518 38.8312 66.4028 38.8312 66.0638V63.6388H38.2442V66.0578C38.2442 66.4058 38.3112 66.6908 38.4412 66.9158C38.5712 67.1408 38.7492 67.3078 38.9722 67.4168C39.1952 67.5258 39.4452 67.5808 39.7232 67.5808C39.9962 67.5808 40.2462 67.5258 40.4722 67.4168C40.6992 67.3078 40.8802 67.1408 41.0162 66.9158C41.1512 66.6908 41.2172 66.4058 41.2172 66.0578V63.6388H40.6302V66.0638ZM96.346 33.2366L90.596 58.9786H94.283L95.369 53.4476H100.395L101.479 58.9786H105.166L99.418 33.2366H96.346ZM116.375 33.2366H120.063V58.9786H116.592L110.952 43.5046H110.879V58.9786H107.192V33.2366H110.735L116.303 48.7476H116.375V33.2366ZM132.03 33.2366L129.065 43.4676H128.993L126.028 33.2366H122.124L127.184 48.0956V58.9786H130.872V48.0956L135.934 33.2366H132.03ZM29.1 63.6391L30.013 65.5091L30.922 63.6391H31.579L30.307 66.0841V67.5141H29.721V66.0841L28.436 63.6391H29.1Z" fill="#FFB9C6"/>
</svg>
