<svg width="162" height="101" viewBox="0 0 162 101" fill="none" xmlns="http://www.w3.org/2000/svg">
<path fill-rule="evenodd" clip-rule="evenodd" d="M41.916 39.9255C41.916 44.6025 45.707 48.3945 50.385 48.3945C55.062 48.3945 58.854 44.6025 58.854 39.9255C58.854 35.2475 55.062 31.4565 50.385 31.4565C45.707 31.4565 41.916 35.2475 41.916 39.9255ZM10 50.1655C10 33.5165 23.496 20.0195 40.145 20.0195C56.794 20.0195 70.29 33.5165 70.29 50.1655C70.29 66.8135 56.794 80.3105 40.145 80.3105C23.496 80.3105 10 66.8135 10 50.1655ZM82.7818 44.5621C81.6438 44.5621 80.6668 44.3181 79.8518 43.8291C79.0358 43.3411 78.4078 42.6591 77.9678 41.7841C77.5278 40.9101 77.3078 39.8981 77.3078 38.7491C77.3078 37.6011 77.5278 36.5861 77.9678 35.7061C78.4078 34.8261 79.0358 34.1391 79.8518 33.6451C80.6668 33.1521 81.6438 32.9051 82.7818 32.9051C84.1348 32.9051 85.2428 33.2401 86.1058 33.9111C86.9718 34.5821 87.5108 35.5241 87.7258 36.7371H85.4558C85.3148 36.1251 85.0188 35.6441 84.5608 35.2961C84.1048 34.9471 83.5008 34.7721 82.7498 34.7721C81.7088 34.7721 80.8928 35.1261 80.3028 35.8351C79.7118 36.5431 79.4168 37.5151 79.4168 38.7491C79.4168 39.9841 79.7118 40.9531 80.3028 41.6561C80.8928 42.3591 81.7088 42.7101 82.7498 42.7101C83.5008 42.7101 84.1048 42.5471 84.5608 42.2191C85.0188 41.8921 85.3148 41.4381 85.4558 40.8581H87.7258C87.5108 42.0181 86.9718 42.9251 86.1058 43.5791C85.2428 44.2341 84.1348 44.5621 82.7818 44.5621ZM93.3443 37.976C92.7973 37.976 92.3283 38.178 91.9363 38.58C91.5433 38.983 91.3483 39.581 91.3483 40.375C91.3483 41.17 91.5433 41.768 91.9363 42.171C92.3283 42.573 92.7913 42.774 93.3293 42.774C93.8653 42.774 94.3323 42.573 94.7293 42.171C95.1263 41.768 95.3253 41.17 95.3253 40.375C95.3253 39.581 95.1263 38.983 94.7293 38.58C94.3323 38.178 93.8713 37.976 93.3443 37.976ZM93.3293 44.562C92.5553 44.562 91.8613 44.385 91.2443 44.031C90.6253 43.676 90.1373 43.185 89.7783 42.557C89.4183 41.929 89.2393 41.202 89.2393 40.375C89.2393 39.549 89.4213 38.822 89.7863 38.194C90.1513 37.566 90.6423 37.075 91.2593 36.721C91.8763 36.366 92.5723 36.189 93.3443 36.189C94.1073 36.189 94.7963 36.366 95.4143 36.721C96.0313 37.075 96.5193 37.566 96.8783 38.194C97.2383 38.822 97.4183 39.549 97.4183 40.375C97.4183 41.202 97.2383 41.929 96.8783 42.557C96.5193 43.185 96.0283 43.676 95.4063 44.031C94.7833 44.385 94.0903 44.562 93.3293 44.562ZM109.139 36.1894C108.559 36.1894 108.026 36.3174 107.537 36.5754C107.048 36.8334 106.66 37.1824 106.369 37.6224C105.855 36.6674 104.98 36.1894 103.745 36.1894C103.187 36.1894 102.696 36.3044 102.272 36.5354C101.848 36.7664 101.507 37.0744 101.249 37.4614L101.073 36.3824H99.2534V44.3684H101.314V40.2464C101.314 39.5174 101.483 38.9484 101.821 38.5404C102.16 38.1324 102.602 37.9284 103.15 37.9284C103.707 37.9284 104.12 38.1104 104.389 38.4754C104.658 38.8404 104.791 39.3664 104.791 40.0534V44.3684H106.853V40.2464C106.853 39.5174 107.022 38.9484 107.36 38.5404C107.698 38.1324 108.146 37.9284 108.704 37.9284C109.251 37.9284 109.657 38.1104 109.92 38.4754C110.183 38.8404 110.315 39.3664 110.315 40.0534V44.3684H112.375V39.8604C112.375 38.6584 112.096 37.7454 111.538 37.1234C110.98 36.5014 110.18 36.1894 109.139 36.1894ZM118.639 42.7586C119.293 42.7586 119.835 42.5386 120.265 42.0986C120.695 41.6586 120.91 41.0896 120.91 40.3916C120.91 39.6936 120.695 39.1196 120.265 38.6686C119.835 38.2186 119.293 37.9926 118.639 37.9926C117.973 37.9926 117.428 38.2156 117.004 38.6606C116.58 39.1066 116.369 39.6776 116.369 40.3756C116.369 41.0736 116.58 41.6446 117.004 42.0906C117.428 42.5356 117.973 42.7586 118.639 42.7586ZM121.086 36.7366C121.676 37.1016 122.143 37.6006 122.487 38.2336C122.83 38.8676 123.002 39.5866 123.002 40.3916C123.002 41.1966 122.83 41.9126 122.487 42.5406C122.143 43.1686 121.676 43.6626 121.086 44.0226C120.495 44.3816 119.825 44.5616 119.074 44.5616C118.472 44.5616 117.947 44.4496 117.495 44.2236C117.045 43.9986 116.68 43.6816 116.401 43.2736V47.9106H114.34V36.3826H116.175L116.401 37.5256C116.659 37.1716 116.999 36.8606 117.423 36.5916C117.847 36.3236 118.398 36.1896 119.074 36.1896C119.825 36.1896 120.495 36.3716 121.086 36.7366ZM129.435 42.372C129.107 42.758 128.649 42.952 128.058 42.952C127.671 42.952 127.361 42.866 127.124 42.694C126.888 42.522 126.77 42.281 126.77 41.97C126.77 41.68 126.888 41.435 127.124 41.237C127.361 41.039 127.752 40.939 128.3 40.939H130.055C129.969 41.508 129.762 41.986 129.435 42.372ZM128.075 39.651C126.915 39.651 126.045 39.882 125.466 40.343C124.886 40.805 124.596 41.406 124.596 42.146C124.596 42.587 124.704 42.989 124.918 43.354C125.133 43.719 125.46 44.012 125.901 44.232C126.34 44.452 126.905 44.562 127.591 44.562C128.256 44.562 128.801 44.422 129.226 44.143C129.65 43.864 129.98 43.51 130.216 43.08L130.409 44.369H132.164V39.458C132.164 38.417 131.836 37.612 131.182 37.042C130.527 36.474 129.63 36.189 128.493 36.189C127.828 36.189 127.226 36.305 126.69 36.536C126.153 36.767 125.715 37.097 125.377 37.526C125.039 37.955 124.843 38.459 124.789 39.039H126.802C126.877 38.653 127.071 38.36 127.382 38.162C127.693 37.963 128.058 37.864 128.477 37.864C128.938 37.864 129.325 37.993 129.636 38.25C129.948 38.508 130.103 38.91 130.103 39.458V39.651H128.075ZM141.954 39.8606V44.3686H139.892V40.0536C139.892 39.3666 139.753 38.8406 139.475 38.4756C139.195 38.1106 138.76 37.9286 138.17 37.9286C137.591 37.9286 137.115 38.1326 136.745 38.5396C136.375 38.9486 136.189 39.5166 136.189 40.2466V44.3686H134.129V36.3826H135.948L136.109 37.7346C136.355 37.2626 136.713 36.8876 137.18 36.6076C137.646 36.3286 138.196 36.1896 138.83 36.1896C139.817 36.1896 140.585 36.5006 141.133 37.1226C141.68 37.7456 141.954 38.6586 141.954 39.8606ZM146.494 43.8374L144.642 47.9114H146.832L151.904 36.3824H149.714L147.38 42.0024L145.141 36.3824H142.903L146.011 43.8374H146.494ZM77.0178 52.4189H85.6648V54.0769H82.3628V63.6899H80.3028V54.0769H77.0178V52.4189ZM87.5164 58.9072C87.6234 58.3292 87.8704 57.8952 88.2564 57.6122C88.6434 57.3272 89.0884 57.1842 89.5934 57.1842C90.1194 57.1842 90.5594 57.3412 90.9134 57.6512C91.2674 57.9642 91.4604 58.3822 91.4934 58.9072H87.5164ZM91.6704 56.0262C91.0694 55.6822 90.3764 55.5112 89.5934 55.5112C88.7554 55.5112 88.0294 55.6902 87.4124 56.0502C86.7934 56.4092 86.3114 56.9112 85.9624 57.5552C85.6134 58.2002 85.4394 58.9342 85.4394 59.7612C85.4394 60.5772 85.6164 61.2962 85.9704 61.9192C86.3254 62.5422 86.8134 63.0242 87.4354 63.3682C88.0584 63.7122 88.7724 63.8842 89.5774 63.8842C90.2214 63.8842 90.7974 63.7642 91.3084 63.5282C91.8184 63.2922 92.2464 62.9682 92.5964 62.5552C92.9454 62.1412 93.1944 61.6822 93.3444 61.1782H91.2514C91.1124 61.4792 90.9004 61.7232 90.6164 61.9112C90.3304 62.0982 89.9794 62.1922 89.5614 62.1922C89.0024 62.1922 88.5284 62.0142 88.1364 61.6612C87.7444 61.3072 87.5274 60.8192 87.4844 60.1962H93.5544C93.5644 60.0552 93.5734 59.9232 93.5784 59.7942C93.5834 59.6652 93.5864 59.5422 93.5864 59.4232C93.5864 58.6922 93.4164 58.0302 93.0784 57.4342C92.7414 56.8392 92.2714 56.3702 91.6704 56.0262ZM98.2553 58.5381L100.268 55.7041H102.49L99.5763 59.6961L102.49 63.6901H100.268L98.2553 60.8561L96.2273 63.6901H94.0213L96.9193 59.6961L94.0213 55.7041H96.2273L98.2553 58.5381ZM106.66 53.5615H104.841L104.599 55.7045H103.23V57.4265H104.599V60.9055C104.599 61.9465 104.851 62.6705 105.355 63.0775C105.86 63.4855 106.531 63.6905 107.368 63.6905H108.769V61.9345H107.771C107.363 61.9345 107.076 61.8625 106.91 61.7175C106.743 61.5735 106.66 61.3075 106.66 60.9205V57.4265H108.817V55.7045H106.66V53.5615ZM114.468 52.4189H116.53V62.0789H121.521V63.6899H114.468V52.4189ZM128.171 61.4912C127.774 61.8952 127.307 62.0962 126.771 62.0962C126.234 62.0962 125.77 61.8952 125.378 61.4912C124.985 61.0892 124.79 60.4912 124.79 59.6962C124.79 58.9032 124.985 58.3032 125.378 57.9012C125.77 57.4992 126.239 57.2982 126.786 57.2982C127.313 57.2982 127.774 57.4992 128.171 57.9012C128.568 58.3032 128.767 58.9032 128.767 59.6962C128.767 60.4912 128.568 61.0892 128.171 61.4912ZM128.856 56.0422C128.238 55.6882 127.549 55.5112 126.786 55.5112C126.014 55.5112 125.318 55.6882 124.701 56.0422C124.084 56.3952 123.593 56.8872 123.228 57.5142C122.863 58.1432 122.681 58.8702 122.681 59.6962C122.681 60.5242 122.86 61.2512 123.22 61.8782C123.579 62.5072 124.067 62.9972 124.686 63.3522C125.303 63.7062 125.997 63.8842 126.771 63.8842C127.532 63.8842 128.225 63.7062 128.848 63.3522C129.47 62.9972 129.961 62.5072 130.32 61.8782C130.68 61.2512 130.86 60.5242 130.86 59.6962C130.86 58.8702 130.68 58.1432 130.32 57.5142C129.961 56.8872 129.473 56.3952 128.856 56.0422ZM135.577 59.7296C135.996 59.7296 136.342 59.6166 136.616 59.3916C136.889 59.1646 137.026 58.8426 137.026 58.4246C137.026 58.0066 136.889 57.6846 136.616 57.4576C136.342 57.2336 135.996 57.1206 135.577 57.1206C135.137 57.1206 134.783 57.2336 134.514 57.4576C134.246 57.6846 134.112 58.0066 134.112 58.4246C134.112 58.8426 134.246 59.1646 134.514 59.3916C134.783 59.6166 135.137 59.7296 135.577 59.7296ZM135.738 63.6256C135.298 63.5926 134.89 63.5456 134.514 63.4816C134.203 63.6536 133.98 63.8406 133.846 64.0436C133.712 64.2466 133.645 64.4576 133.645 64.6726C133.645 65.0696 133.83 65.3666 134.2 65.5656C134.571 65.7646 135.024 65.8646 135.561 65.8646C136.076 65.8646 136.495 65.7586 136.817 65.5496C137.138 65.3406 137.3 65.0576 137.3 64.7036C137.3 64.4146 137.195 64.1726 136.986 63.9796C136.776 63.7866 136.36 63.6686 135.738 63.6256ZM133.822 55.8976C134.305 55.6396 134.89 55.5106 135.577 55.5106C136.028 55.5106 136.446 55.5756 136.833 55.7036H139.86V56.9596L138.491 57.0556C138.706 57.4636 138.813 57.9146 138.813 58.4096C138.813 58.9466 138.684 59.4346 138.427 59.8736C138.17 60.3136 137.797 60.6626 137.307 60.9206C136.819 61.1786 136.242 61.3076 135.577 61.3076C135.19 61.3076 134.831 61.2646 134.498 61.1786L133.902 61.7746C134.085 61.8706 134.332 61.9506 134.643 62.0146C134.954 62.0796 135.459 62.1436 136.157 62.2076C137.22 62.3056 137.992 62.5576 138.475 62.9656C138.958 63.3736 139.2 63.9366 139.2 64.6556C139.2 65.1276 139.071 65.5776 138.813 66.0006C138.555 66.4246 138.158 66.7686 137.622 67.0306C137.085 67.2936 136.398 67.4246 135.561 67.4246C134.423 67.4246 133.506 67.2136 132.807 66.7896C132.11 66.3666 131.762 65.7296 131.762 64.8816C131.762 64.1626 132.11 63.5396 132.807 63.0146C132.593 62.9166 132.408 62.8156 132.252 62.7076C132.096 62.6006 131.96 62.4876 131.842 62.3706V61.9986L133.242 60.5186C132.62 59.9696 132.308 59.2686 132.308 58.4096C132.308 57.8716 132.44 57.3836 132.703 56.9446C132.966 56.5026 133.339 56.1556 133.822 55.8976ZM146.268 61.4912C145.871 61.8952 145.404 62.0962 144.868 62.0962C144.331 62.0962 143.867 61.8952 143.475 61.4912C143.082 61.0892 142.887 60.4912 142.887 59.6962C142.887 58.9032 143.082 58.3032 143.475 57.9012C143.867 57.4992 144.336 57.2982 144.883 57.2982C145.41 57.2982 145.871 57.4992 146.268 57.9012C146.665 58.3032 146.864 58.9032 146.864 59.6962C146.864 60.4912 146.665 61.0892 146.268 61.4912ZM146.953 56.0422C146.335 55.6882 145.646 55.5112 144.883 55.5112C144.111 55.5112 143.415 55.6882 142.798 56.0422C142.181 56.3952 141.69 56.8872 141.325 57.5142C140.96 58.1432 140.778 58.8702 140.778 59.6962C140.778 60.5242 140.957 61.2512 141.317 61.8782C141.676 62.5072 142.164 62.9972 142.783 63.3522C143.4 63.7062 144.094 63.8842 144.868 63.8842C145.629 63.8842 146.322 63.7062 146.945 63.3522C147.567 62.9972 148.058 62.5072 148.417 61.8782C148.777 61.2512 148.957 60.5242 148.957 59.6962C148.957 58.8702 148.777 58.1432 148.417 57.5142C148.058 56.8872 147.57 56.3952 146.953 56.0422Z" fill="#FFB9C6"/>
</svg>
