<svg width="207" height="33" viewBox="0 0 207 33" fill="none" xmlns="http://www.w3.org/2000/svg">
<path d="M4.56 7.912H14.576V2.6H4.56V7.912ZM4.56 16.616H14.256V11.72H4.56V16.616ZM0.304 2.6V25H6.256V2.6H0.304ZM16.51 17.64C16.51 19.2187 16.894 20.584 17.662 21.736C18.43 22.8667 19.4647 23.752 20.766 24.392C22.0887 25.0107 23.5713 25.32 25.214 25.32C26.878 25.32 28.3607 25.0107 29.662 24.392C30.9847 23.752 32.0193 22.8667 32.766 21.736C33.5127 20.584 33.886 19.2187 33.886 17.64C33.886 16.04 33.5127 14.6747 32.766 13.544C32.0193 12.392 30.9847 11.496 29.662 10.856C28.3607 10.216 26.878 9.896 25.214 9.896C23.5927 9.896 22.1207 10.216 20.798 10.856C19.4753 11.4747 18.43 12.36 17.662 13.512C16.894 14.664 16.51 16.04 16.51 17.64ZM22.27 17.64C22.27 16.9573 22.398 16.3813 22.654 15.912C22.9313 15.4427 23.294 15.08 23.742 14.824C24.19 14.568 24.6807 14.44 25.214 14.44C25.7473 14.44 26.238 14.568 26.686 14.824C27.134 15.08 27.486 15.4427 27.742 15.912C28.0193 16.3813 28.158 16.9467 28.158 17.608C28.158 18.312 28.0193 18.8987 27.742 19.368C27.486 19.8373 27.134 20.2 26.686 20.456C26.238 20.712 25.7473 20.84 25.214 20.84C24.6807 20.84 24.19 20.712 23.742 20.456C23.294 20.2 22.9313 19.8373 22.654 19.368C22.398 18.8773 22.27 18.3013 22.27 17.64ZM36.06 17.64C36.06 19.2187 36.444 20.584 37.212 21.736C37.98 22.8667 39.0147 23.752 40.316 24.392C41.6387 25.0107 43.1213 25.32 44.764 25.32C46.428 25.32 47.9107 25.0107 49.212 24.392C50.5347 23.752 51.5693 22.8667 52.316 21.736C53.0627 20.584 53.436 19.2187 53.436 17.64C53.436 16.04 53.0627 14.6747 52.316 13.544C51.5693 12.392 50.5347 11.496 49.212 10.856C47.9107 10.216 46.428 9.896 44.764 9.896C43.1427 9.896 41.6707 10.216 40.348 10.856C39.0253 11.4747 37.98 12.36 37.212 13.512C36.444 14.664 36.06 16.04 36.06 17.64ZM41.82 17.64C41.82 16.9573 41.948 16.3813 42.204 15.912C42.4813 15.4427 42.844 15.08 43.292 14.824C43.74 14.568 44.2307 14.44 44.764 14.44C45.2973 14.44 45.788 14.568 46.236 14.824C46.684 15.08 47.036 15.4427 47.292 15.912C47.5693 16.3813 47.708 16.9467 47.708 17.608C47.708 18.312 47.5693 18.8987 47.292 19.368C47.036 19.8373 46.684 20.2 46.236 20.456C45.788 20.712 45.2973 20.84 44.764 20.84C44.2307 20.84 43.74 20.712 43.292 20.456C42.844 20.2 42.4813 19.8373 42.204 19.368C41.948 18.8773 41.82 18.3013 41.82 17.64ZM67.578 0.039999V25H73.146V0.039999H67.578ZM55.61 17.64C55.61 19.3253 55.9407 20.744 56.602 21.896C57.2847 23.0267 58.1487 23.88 59.194 24.456C60.2607 25.032 61.3807 25.32 62.554 25.32C63.4713 25.32 64.314 25.1493 65.082 24.808C65.8713 24.4453 66.554 23.9333 67.13 23.272C67.7273 22.6107 68.186 21.8107 68.506 20.872C68.826 19.912 68.986 18.8347 68.986 17.64C68.986 16.4453 68.826 15.3787 68.506 14.44C68.186 13.48 67.7273 12.6693 67.13 12.008C66.554 11.3467 65.8713 10.8453 65.082 10.504C64.314 10.1413 63.4713 9.96 62.554 9.96C61.3807 9.96 60.2607 10.248 59.194 10.824C58.1487 11.4 57.2847 12.2533 56.602 13.384C55.9407 14.5147 55.61 15.9333 55.61 17.64ZM61.53 17.64C61.53 16.9787 61.658 16.4027 61.914 15.912C62.1913 15.4 62.5647 15.0053 63.034 14.728C63.5033 14.4507 64.0153 14.312 64.57 14.312C64.9327 14.312 65.2953 14.3973 65.658 14.568C66.0207 14.7173 66.3407 14.9307 66.618 15.208C66.8953 15.4853 67.1193 15.8267 67.29 16.232C67.482 16.6373 67.578 17.1067 67.578 17.64C67.578 18.1733 67.482 18.6427 67.29 19.048C67.1193 19.432 66.8953 19.7733 66.618 20.072C66.3407 20.3493 66.0207 20.5627 65.658 20.712C65.3167 20.8613 64.954 20.936 64.57 20.936C64.0153 20.936 63.5033 20.808 63.034 20.552C62.5647 20.2747 62.1913 19.88 61.914 19.368C61.658 18.856 61.53 18.28 61.53 17.64ZM77.4102 2.6V25H83.8742V2.6H77.4102ZM85.7942 25C87.6929 25 89.3996 24.744 90.9142 24.232C92.4289 23.72 93.7196 22.984 94.7862 22.024C95.8529 21.064 96.6636 19.8907 97.2182 18.504C97.7942 17.1173 98.0822 15.5493 98.0822 13.8C98.0822 12.0507 97.7942 10.4827 97.2182 9.096C96.6636 7.70933 95.8529 6.536 94.7862 5.576C93.7196 4.616 92.4289 3.88 90.9142 3.368C89.3996 2.856 87.6929 2.6 85.7942 2.6H81.6662V8.04H85.5382C86.2849 8.04 87.0102 8.12533 87.7142 8.296C88.4396 8.46667 89.0902 8.76533 89.6662 9.192C90.2636 9.59733 90.7222 10.184 91.0422 10.952C91.3836 11.6987 91.5542 12.648 91.5542 13.8C91.5542 14.952 91.3836 15.912 91.0422 16.68C90.7222 17.4267 90.2636 18.0133 89.6662 18.44C89.0902 18.8453 88.4396 19.1333 87.7142 19.304C87.0102 19.4747 86.2849 19.56 85.5382 19.56H81.6662V25H85.7942ZM109.199 25.32C111.162 25.32 112.815 24.936 114.159 24.168C115.503 23.4 116.58 22.2693 117.391 20.776L112.303 19.784C111.983 20.36 111.556 20.7867 111.023 21.064C110.49 21.3413 109.807 21.48 108.975 21.48C108.314 21.48 107.748 21.3307 107.279 21.032C106.831 20.7333 106.49 20.296 106.255 19.72C106.042 19.1227 105.956 18.4293 105.999 17.64C105.999 16.936 106.052 16.3173 106.159 15.784C106.266 15.2507 106.436 14.824 106.671 14.504C106.906 14.1627 107.204 13.9067 107.567 13.736C107.93 13.544 108.367 13.448 108.879 13.448C109.37 13.448 109.796 13.5653 110.159 13.8C110.522 14.0347 110.799 14.3653 110.991 14.792C111.183 15.2187 111.279 15.72 111.279 16.296C111.279 16.4453 111.236 16.6267 111.151 16.84C111.087 17.032 110.991 17.224 110.863 17.416L112.015 15.944H103.407V18.792H117.199C117.22 18.6 117.231 18.376 117.231 18.12C117.231 17.864 117.231 17.608 117.231 17.352C117.231 15.7733 116.911 14.44 116.271 13.352C115.631 12.2427 114.692 11.4 113.455 10.824C112.239 10.248 110.746 9.96 108.975 9.96C107.652 9.96 106.447 10.1413 105.359 10.504C104.292 10.8453 103.386 11.3467 102.639 12.008C101.914 12.648 101.348 13.448 100.943 14.408C100.538 15.368 100.335 16.4453 100.335 17.64C100.335 19.2187 100.687 20.584 101.391 21.736C102.116 22.888 103.13 23.7733 104.431 24.392C105.754 25.0107 107.343 25.32 109.199 25.32ZM120.309 0.039999V25H125.877V0.039999H120.309ZM129.225 4.936C129.225 5.78933 129.534 6.48267 130.153 7.016C130.771 7.528 131.518 7.784 132.393 7.784C133.267 7.784 134.014 7.528 134.633 7.016C135.251 6.48267 135.561 5.78933 135.561 4.936C135.561 4.08267 135.251 3.38933 134.633 2.856C134.035 2.32267 133.299 2.056 132.425 2.056C131.55 2.056 130.793 2.32267 130.153 2.856C129.534 3.38933 129.225 4.08267 129.225 4.936ZM129.705 10.28V25H135.081V10.28H129.705ZM137.052 10.28L146.076 26.92L155.068 10.28H149.212L146.076 17.768L143.004 10.28H137.052ZM164.586 25.32C166.549 25.32 168.202 24.936 169.546 24.168C170.89 23.4 171.968 22.2693 172.778 20.776L167.69 19.784C167.37 20.36 166.944 20.7867 166.41 21.064C165.877 21.3413 165.194 21.48 164.362 21.48C163.701 21.48 163.136 21.3307 162.666 21.032C162.218 20.7333 161.877 20.296 161.642 19.72C161.429 19.1227 161.344 18.4293 161.386 17.64C161.386 16.936 161.44 16.3173 161.546 15.784C161.653 15.2507 161.824 14.824 162.058 14.504C162.293 14.1627 162.592 13.9067 162.954 13.736C163.317 13.544 163.754 13.448 164.266 13.448C164.757 13.448 165.184 13.5653 165.546 13.8C165.909 14.0347 166.186 14.3653 166.378 14.792C166.57 15.2187 166.666 15.72 166.666 16.296C166.666 16.4453 166.624 16.6267 166.538 16.84C166.474 17.032 166.378 17.224 166.25 17.416L167.402 15.944H158.794V18.792H172.586C172.608 18.6 172.618 18.376 172.618 18.12C172.618 17.864 172.618 17.608 172.618 17.352C172.618 15.7733 172.298 14.44 171.658 13.352C171.018 12.2427 170.08 11.4 168.842 10.824C167.626 10.248 166.133 9.96 164.362 9.96C163.04 9.96 161.834 10.1413 160.746 10.504C159.68 10.8453 158.773 11.3467 158.026 12.008C157.301 12.648 156.736 13.448 156.33 14.408C155.925 15.368 155.722 16.4453 155.722 17.64C155.722 19.2187 156.074 20.584 156.778 21.736C157.504 22.888 158.517 23.7733 159.818 24.392C161.141 25.0107 162.73 25.32 164.586 25.32ZM181.137 10.28H175.697V25H181.137V10.28ZM185.361 15.976L187.697 11.176C187.483 10.8133 187.121 10.504 186.609 10.248C186.097 9.992 185.574 9.864 185.041 9.864C184.187 9.864 183.366 10.1413 182.577 10.696C181.809 11.2293 181.179 11.9653 180.689 12.904C180.219 13.8213 179.985 14.8667 179.985 16.04L181.137 18.248C181.137 17.544 181.243 16.968 181.457 16.52C181.691 16.0507 181.979 15.6987 182.321 15.464C182.662 15.208 183.046 15.08 183.473 15.08C183.899 15.08 184.262 15.1653 184.561 15.336C184.881 15.5067 185.147 15.72 185.361 15.976ZM206.906 10.28H201.306L196.538 22.184H199.514L194.714 10.28H188.666L195.258 24.104L191.802 32.04H197.306L206.906 10.28Z" fill="#F40469"/>
</svg>
