<svg width="162" height="101" viewBox="0 0 162 101" fill="none" xmlns="http://www.w3.org/2000/svg">
<path fill-rule="evenodd" clip-rule="evenodd" d="M69.165 20.0195V36.6765L52.508 20.0195V63.4625H69.165H95.951H112.608L69.165 20.0195ZM57.1483 73.501C57.7083 73.501 58.1583 73.632 58.4983 73.892C58.8383 74.151 59.0603 74.51 59.1643 74.965H60.8563C60.6963 74.062 60.2943 73.359 59.6503 72.859C59.0063 72.359 58.1803 72.109 57.1723 72.109C56.3243 72.109 55.5963 72.293 54.9883 72.661C54.3803 73.029 53.9123 73.541 53.5843 74.197C53.2563 74.854 53.0923 75.609 53.0923 76.465C53.0923 77.321 53.2563 78.075 53.5843 78.728C53.9123 79.38 54.3803 79.888 54.9883 80.251C55.5963 80.615 56.3243 80.797 57.1723 80.797C58.1803 80.797 59.0063 80.554 59.6503 80.065C60.2943 79.577 60.6963 78.901 60.8563 78.037H59.1643C59.0603 78.47 58.8383 78.808 58.4983 79.052C58.1583 79.296 57.7083 79.417 57.1483 79.417C56.3723 79.417 55.7643 79.155 55.3243 78.631C54.8843 78.107 54.6643 77.386 54.6643 76.465C54.6643 75.546 54.8843 74.821 55.3243 74.293C55.7643 73.766 56.3723 73.501 57.1483 73.501ZM70.3422 78.625C69.8662 79.153 69.2282 79.417 68.4282 79.417C67.6282 79.417 66.9882 79.153 66.5082 78.625C66.0282 78.098 65.7882 77.373 65.7882 76.453C65.7882 75.533 66.0282 74.81 66.5082 74.281C66.9882 73.753 67.6282 73.489 68.4282 73.489C69.2282 73.489 69.8662 73.753 70.3422 74.281C70.8182 74.81 71.0562 75.533 71.0562 76.453C71.0562 77.373 70.8182 78.098 70.3422 78.625ZM70.6242 72.661C69.9922 72.293 69.2602 72.109 68.4282 72.109C67.5882 72.109 66.8542 72.293 66.2262 72.661C65.5982 73.029 65.1062 73.539 64.7502 74.191C64.3942 74.844 64.2162 75.598 64.2162 76.453C64.2162 77.31 64.3942 78.063 64.7502 78.715C65.1062 79.367 65.5982 79.878 66.2262 80.245C66.8542 80.613 67.5882 80.797 68.4282 80.797C69.2602 80.797 69.9922 80.613 70.6242 80.245C71.2562 79.878 71.7482 79.367 72.1002 78.715C72.4522 78.063 72.6282 77.31 72.6282 76.453C72.6282 75.598 72.4522 74.844 72.1002 74.191C71.7482 73.539 71.2562 73.029 70.6242 72.661ZM78.0876 72.253L80.7646 77.581L83.4036 72.253H85.2276V80.653H83.6916V74.857L81.3526 79.453H80.1406L77.7996 74.857V80.653H76.2646V72.253H78.0876ZM93.31 75.7998C93.074 76.0348 92.688 76.1538 92.152 76.1538H90.675V73.5008H92.152C92.688 73.5008 93.074 73.6188 93.31 73.8558C93.545 74.0918 93.664 74.4168 93.664 74.8328C93.664 75.2408 93.545 75.5638 93.31 75.7998ZM93.915 72.5888C93.476 72.3648 92.919 72.2528 92.248 72.2528H89.14V80.6538H90.675V77.4018H92.248C92.936 77.4018 93.499 77.2828 93.94 77.0468C94.379 76.8118 94.704 76.4988 94.912 76.1118C95.12 75.7238 95.224 75.2978 95.224 74.8328C95.224 74.3458 95.116 73.9048 94.9 73.5138C94.684 73.1208 94.356 72.8138 93.915 72.5888ZM101.188 74.0178L99.976 77.5098H102.412L101.188 74.0178ZM97.264 80.6538L100.335 72.2528H102.064L105.136 80.6538H103.503L102.831 78.7088H99.556L98.872 80.6538H97.264ZM113.979 78.1689L110.031 72.2529H108.496V80.6529H110.031V74.7489L113.979 80.6529H115.515V72.2529H113.979V78.1689ZM122.379 76.1289L124.228 72.2529H125.944L123.136 77.6649V80.6529H121.6V77.6649L118.78 72.2529H120.52L122.379 76.1289ZM37 80.6541L40.073 72.2531H41.801L44.873 80.6541H43.241L42.569 78.7091H39.293L38.609 80.6541H37ZM42.148 77.5101L40.924 74.0181L39.712 77.5101H42.148Z" fill="#FFB9C6"/>
</svg>
